# xmcd
#
# Track frame offsets:
#	150
#	16441
#	29550
#	41735
#	54970
#	64432
#	76249
#	88895
#	103040
#	111748
#	133584
#	150846
#	162208
#	172201
#	184596
#	195125
#	208703
#	223500
#	242347
#	254932
#	280082
#
# Disc length: 3873 seconds
#
# Revision: 1
# Processed by: cddbd v1.5.2PL0 Copyright (c) Steve Scherf et al.
# Submitted via: audiograbber 1.83.01
#
DISCID=2d0f1f15
DTITLE=Various Artist - Faith And Inspiration (Reader's Digest) [Disc 2]
DYEAR=2013
DGENRE=Easy Listening
TTITLE0=Jim Ed Brown - Whispering Hope
TTITLE1=Willie Nelson and Patsy Cline - Just A Closer Walk With Thee
TTITLE2=Pat Boone - Blackland Farmer
TTITLE3=The Jordanaires - In The Sweet By And By
TTITLE4=Don Gibson - I Need Thee Ev'ry Hour
TTITLE5=Brenda Lee - The Uncloudy Day
TTITLE6=Margo with Dolly Parton - God's Colouring Book
TTITLE7=The Gatlin Brothers - I'll Fly Away
TTITLE8=The Jordanaires - Rock My Soul
TTITLE9=Lee Greenwood - How Great Thou Art
TTITLE10=Skeeter Davis - Oh Happy Day
TTITLE11=Mickey Gilley - I Saw The Light
TTITLE12=Brenda Lee - Have A Little Talk With Jesus
TTITLE13=The Jordanaires - Will The Circle Be Unbroken
TTITLE14=Patsy Cline - He Will Do For You What He Has Done For Me
TTITLE15=The Jordanaires - Wade In The Water
TTITLE16=Pat Boone - These Hands
TTITLE17=Wink Martindale - Deck Of Cards
TTITLE18=Marty Raybon - The Great Speckled Bird
TTITLE19=Rebecca Holden - Blessed Assurance
TTITLE20=Johnny Lee - The Lord's Prayer
EXTD=
EXTT0=
EXTT1=
EXTT2=
EXTT3=
EXTT4=
EXTT5=
EXTT6=
EXTT7=
EXTT8=
EXTT9=
EXTT10=
EXTT11=
EXTT12=
EXTT13=
EXTT14=
EXTT15=
EXTT16=
EXTT17=
EXTT18=
EXTT19=
EXTT20=
PLAYORDER=
